<svg width="206" height="59" viewBox="0 0 206 59" fill="none" xmlns="http://www.w3.org/2000/svg">
<path d="M-5.82933e-05 58.8V4.48227e-05H0.839942L44.5199 55.104V4.48227e-05H46.1999V58.8H45.3599L1.67994 3.69605V58.8H-5.82933e-05ZM100.419 58.8L91.7673 38.724H61.1073L52.5393 58.8H50.8593L76.0593 4.48227e-05H76.8993L102.099 58.8H100.419ZM76.4793 2.94005L61.7793 37.212H91.1793L76.4793 2.94005ZM151.692 58.8L143.04 38.724H112.38L103.812 58.8H102.132L127.332 4.48227e-05H128.172L153.372 58.8H151.692ZM127.752 2.94005L113.052 37.212H142.452L127.752 2.94005ZM205.882 29.4C205.882 39.144 201.346 47.88 194.122 53.256C189.334 56.784 183.286 58.8 173.962 58.8H158.002V4.48227e-05H173.962C183.286 4.48227e-05 189.334 2.01604 194.122 5.54405C201.346 10.92 205.882 19.656 205.882 29.4ZM159.682 57.288H173.794C182.698 57.288 188.578 55.356 193.198 51.912C200.002 46.872 204.202 38.64 204.202 29.4C204.202 20.16 200.002 11.928 193.198 6.88805C188.578 3.44405 182.698 1.51205 173.794 1.51205H159.682V57.288Z" fill="black"/>
</svg>
